<svg xmlns="http://www.w3.org/2000/svg" xmlns:xlink="http://www.w3.org/1999/xlink" width="500" zoomAndPan="magnify" viewBox="0 0 375 149.999998" height="200" preserveAspectRatio="xMidYMid meet" version="1.0"><defs><g/><clipPath id="f28e3dcd63"><path d="M 108 0 L 266.863281 0 L 266.863281 106 L 108 106 Z M 108 0 " clip-rule="nonzero"/></clipPath></defs><g fill="#2c203b" fill-opacity="1"><g transform="translate(41.270505, 142.653558)"><g><path d="M 13.0625 -2.671875 C 13.34375 -2.515625 13.484375 -2.296875 13.484375 -2.015625 C 13.484375 -1.796875 13.40625 -1.613281 13.25 -1.46875 C 13.09375 -1.332031 12.890625 -1.265625 12.640625 -1.265625 C 12.460938 -1.265625 12.300781 -1.296875 12.15625 -1.359375 L 2.125 -5.90625 C 1.894531 -6 1.710938 -6.148438 1.578125 -6.359375 C 1.453125 -6.566406 1.390625 -6.800781 1.390625 -7.0625 C 1.390625 -7.3125 1.453125 -7.535156 1.578125 -7.734375 C 1.710938 -7.929688 1.894531 -8.082031 2.125 -8.1875 L 12.15625 -12.71875 C 12.351562 -12.800781 12.515625 -12.84375 12.640625 -12.84375 C 12.890625 -12.84375 13.09375 -12.769531 13.25 -12.625 C 13.40625 -12.488281 13.484375 -12.304688 13.484375 -12.078125 C 13.484375 -11.796875 13.34375 -11.582031 13.0625 -11.4375 L 3.296875 -7.046875 Z M 13.0625 -2.671875 "/></g></g></g><g fill="#2c203b" fill-opacity="1"><g transform="translate(64.608674, 142.653558)"><g><path d="M 9.578125 0.203125 C 7.921875 0.203125 6.488281 -0.15625 5.28125 -0.875 C 4.070312 -1.59375 3.140625 -2.625 2.484375 -3.96875 C 1.835938 -5.320312 1.515625 -6.914062 1.515625 -8.75 C 1.515625 -10.570312 1.835938 -12.15625 2.484375 -13.5 C 3.140625 -14.84375 4.070312 -15.875 5.28125 -16.59375 C 6.488281 -17.320312 7.921875 -17.6875 9.578125 -17.6875 C 10.679688 -17.6875 11.722656 -17.503906 12.703125 -17.140625 C 13.691406 -16.785156 14.550781 -16.28125 15.28125 -15.625 C 15.539062 -15.375 15.671875 -15.082031 15.671875 -14.75 C 15.671875 -14.519531 15.601562 -14.316406 15.46875 -14.140625 C 15.34375 -13.972656 15.1875 -13.890625 15 -13.890625 C 14.800781 -13.890625 14.5625 -13.976562 14.28125 -14.15625 C 13.4375 -14.820312 12.671875 -15.285156 11.984375 -15.546875 C 11.296875 -15.804688 10.507812 -15.9375 9.625 -15.9375 C 7.707031 -15.9375 6.226562 -15.3125 5.1875 -14.0625 C 4.15625 -12.820312 3.640625 -11.050781 3.640625 -8.75 C 3.640625 -6.4375 4.15625 -4.65625 5.1875 -3.40625 C 6.226562 -2.15625 7.707031 -1.53125 9.625 -1.53125 C 10.5 -1.53125 11.28125 -1.660156 11.96875 -1.921875 C 12.664062 -2.191406 13.4375 -2.660156 14.28125 -3.328125 C 14.5625 -3.503906 14.800781 -3.59375 15 -3.59375 C 15.1875 -3.59375 15.34375 -3.507812 15.46875 -3.34375 C 15.601562 -3.175781 15.671875 -2.972656 15.671875 -2.734375 C 15.671875 -2.398438 15.539062 -2.109375 15.28125 -1.859375 C 14.550781 -1.203125 13.691406 -0.691406 12.703125 -0.328125 C 11.722656 0.0234375 10.679688 0.203125 9.578125 0.203125 Z M 9.578125 0.203125 "/></g></g></g><g fill="#2c203b" fill-opacity="1"><g transform="translate(89.856311, 142.653558)"><g><path d="M 9.46875 0.203125 C 7.851562 0.203125 6.445312 -0.160156 5.25 -0.890625 C 4.050781 -1.617188 3.128906 -2.648438 2.484375 -3.984375 C 1.835938 -5.328125 1.515625 -6.910156 1.515625 -8.734375 C 1.515625 -10.566406 1.832031 -12.15625 2.46875 -13.5 C 3.101562 -14.84375 4.019531 -15.875 5.21875 -16.59375 C 6.414062 -17.320312 7.832031 -17.6875 9.46875 -17.6875 C 11.101562 -17.6875 12.519531 -17.320312 13.71875 -16.59375 C 14.914062 -15.875 15.832031 -14.84375 16.46875 -13.5 C 17.113281 -12.15625 17.4375 -10.570312 17.4375 -8.75 C 17.4375 -6.9375 17.113281 -5.351562 16.46875 -4 C 15.820312 -2.65625 14.898438 -1.617188 13.703125 -0.890625 C 12.503906 -0.160156 11.09375 0.203125 9.46875 0.203125 Z M 9.46875 -1.53125 C 11.320312 -1.53125 12.765625 -2.15625 13.796875 -3.40625 C 14.828125 -4.65625 15.34375 -6.4375 15.34375 -8.75 C 15.34375 -11.0625 14.832031 -12.835938 13.8125 -14.078125 C 12.789062 -15.316406 11.34375 -15.9375 9.46875 -15.9375 C 7.613281 -15.9375 6.171875 -15.3125 5.140625 -14.0625 C 4.109375 -12.820312 3.59375 -11.050781 3.59375 -8.75 C 3.59375 -6.457031 4.109375 -4.679688 5.140625 -3.421875 C 6.171875 -2.160156 7.613281 -1.53125 9.46875 -1.53125 Z M 9.46875 -1.53125 "/></g></g></g><g fill="#2c203b" fill-opacity="1"><g transform="translate(117.261388, 142.653558)"><g><path d="M 3.203125 0 C 2.890625 0 2.632812 -0.0859375 2.4375 -0.265625 C 2.25 -0.453125 2.15625 -0.691406 2.15625 -0.984375 L 2.15625 -16.484375 C 2.15625 -16.785156 2.25 -17.023438 2.4375 -17.203125 C 2.632812 -17.390625 2.890625 -17.484375 3.203125 -17.484375 L 8.03125 -17.484375 C 10.820312 -17.484375 12.984375 -16.722656 14.515625 -15.203125 C 16.046875 -13.691406 16.8125 -11.539062 16.8125 -8.75 C 16.8125 -5.957031 16.039062 -3.800781 14.5 -2.28125 C 12.96875 -0.757812 10.8125 0 8.03125 0 Z M 7.90625 -1.734375 C 12.4375 -1.734375 14.703125 -4.070312 14.703125 -8.75 C 14.703125 -13.414062 12.4375 -15.75 7.90625 -15.75 L 4.1875 -15.75 L 4.1875 -1.734375 Z M 7.90625 -1.734375 "/></g></g></g><g fill="#2c203b" fill-opacity="1"><g transform="translate(144.046517, 142.653558)"><g><path d="M 3.203125 0 C 2.890625 0 2.632812 -0.0859375 2.4375 -0.265625 C 2.25 -0.453125 2.15625 -0.691406 2.15625 -0.984375 L 2.15625 -16.484375 C 2.15625 -16.785156 2.25 -17.023438 2.4375 -17.203125 C 2.632812 -17.390625 2.890625 -17.484375 3.203125 -17.484375 L 12.46875 -17.484375 C 12.769531 -17.484375 13.003906 -17.40625 13.171875 -17.25 C 13.335938 -17.101562 13.421875 -16.898438 13.421875 -16.640625 C 13.421875 -16.367188 13.335938 -16.160156 13.171875 -16.015625 C 13.003906 -15.867188 12.769531 -15.796875 12.46875 -15.796875 L 4.171875 -15.796875 L 4.171875 -9.71875 L 11.984375 -9.71875 C 12.273438 -9.71875 12.503906 -9.644531 12.671875 -9.5 C 12.835938 -9.351562 12.921875 -9.144531 12.921875 -8.875 C 12.921875 -8.613281 12.835938 -8.40625 12.671875 -8.25 C 12.503906 -8.101562 12.273438 -8.03125 11.984375 -8.03125 L 4.171875 -8.03125 L 4.171875 -1.6875 L 12.46875 -1.6875 C 12.769531 -1.6875 13.003906 -1.613281 13.171875 -1.46875 C 13.335938 -1.332031 13.421875 -1.125 13.421875 -0.84375 C 13.421875 -0.582031 13.335938 -0.375 13.171875 -0.21875 C 13.003906 -0.0703125 12.769531 0 12.46875 0 Z M 3.203125 0 "/></g></g></g><g fill="#2c203b" fill-opacity="1"><g transform="translate(166.938323, 142.653558)"><g><path d="M 24.5 -16.984375 C 24.5625 -17.203125 24.675781 -17.363281 24.84375 -17.46875 C 25.007812 -17.570312 25.191406 -17.625 25.390625 -17.625 C 25.648438 -17.625 25.875 -17.546875 26.0625 -17.390625 C 26.257812 -17.234375 26.359375 -17.023438 26.359375 -16.765625 C 26.359375 -16.648438 26.332031 -16.515625 26.28125 -16.359375 L 20.6875 -0.578125 C 20.601562 -0.335938 20.460938 -0.15625 20.265625 -0.03125 C 20.066406 0.09375 19.84375 0.15625 19.59375 0.15625 C 19.363281 0.15625 19.144531 0.09375 18.9375 -0.03125 C 18.738281 -0.15625 18.597656 -0.335938 18.515625 -0.578125 L 13.65625 -14.3125 L 8.75 -0.578125 C 8.664062 -0.335938 8.523438 -0.15625 8.328125 -0.03125 C 8.128906 0.09375 7.914062 0.15625 7.6875 0.15625 C 7.457031 0.15625 7.242188 0.09375 7.046875 -0.03125 C 6.847656 -0.15625 6.707031 -0.335938 6.625 -0.578125 L 0.984375 -16.359375 C 0.941406 -16.492188 0.921875 -16.617188 0.921875 -16.734375 C 0.921875 -17.003906 1.019531 -17.21875 1.21875 -17.375 C 1.425781 -17.539062 1.664062 -17.625 1.9375 -17.625 C 2.132812 -17.625 2.316406 -17.570312 2.484375 -17.46875 C 2.660156 -17.363281 2.785156 -17.203125 2.859375 -16.984375 L 7.734375 -2.90625 L 12.703125 -16.84375 C 12.773438 -17.082031 12.898438 -17.265625 13.078125 -17.390625 C 13.265625 -17.515625 13.46875 -17.578125 13.6875 -17.578125 C 13.90625 -17.578125 14.101562 -17.507812 14.28125 -17.375 C 14.46875 -17.25 14.601562 -17.0625 14.6875 -16.8125 L 19.5625 -2.859375 Z M 24.5 -16.984375 "/></g></g></g><g fill="#2c203b" fill-opacity="1"><g transform="translate(202.700387, 142.653558)"><g><path d="M 9.46875 0.203125 C 7.851562 0.203125 6.445312 -0.160156 5.25 -0.890625 C 4.050781 -1.617188 3.128906 -2.648438 2.484375 -3.984375 C 1.835938 -5.328125 1.515625 -6.910156 1.515625 -8.734375 C 1.515625 -10.566406 1.832031 -12.15625 2.46875 -13.5 C 3.101562 -14.84375 4.019531 -15.875 5.21875 -16.59375 C 6.414062 -17.320312 7.832031 -17.6875 9.46875 -17.6875 C 11.101562 -17.6875 12.519531 -17.320312 13.71875 -16.59375 C 14.914062 -15.875 15.832031 -14.84375 16.46875 -13.5 C 17.113281 -12.15625 17.4375 -10.570312 17.4375 -8.75 C 17.4375 -6.9375 17.113281 -5.351562 16.46875 -4 C 15.820312 -2.65625 14.898438 -1.617188 13.703125 -0.890625 C 12.503906 -0.160156 11.09375 0.203125 9.46875 0.203125 Z M 9.46875 -1.53125 C 11.320312 -1.53125 12.765625 -2.15625 13.796875 -3.40625 C 14.828125 -4.65625 15.34375 -6.4375 15.34375 -8.75 C 15.34375 -11.0625 14.832031 -12.835938 13.8125 -14.078125 C 12.789062 -15.316406 11.34375 -15.9375 9.46875 -15.9375 C 7.613281 -15.9375 6.171875 -15.3125 5.140625 -14.0625 C 4.109375 -12.820312 3.59375 -11.050781 3.59375 -8.75 C 3.59375 -6.457031 4.109375 -4.679688 5.140625 -3.421875 C 6.171875 -2.160156 7.613281 -1.53125 9.46875 -1.53125 Z M 9.46875 -1.53125 "/></g></g></g><g fill="#2c203b" fill-opacity="1"><g transform="translate(230.105468, 142.653558)"><g><path d="M 15.5 -1.265625 C 15.613281 -1.078125 15.671875 -0.882812 15.671875 -0.6875 C 15.671875 -0.445312 15.570312 -0.242188 15.375 -0.078125 C 15.1875 0.078125 14.972656 0.15625 14.734375 0.15625 C 14.347656 0.15625 14.050781 -0.0078125 13.84375 -0.34375 L 10.515625 -5.609375 C 10.085938 -6.285156 9.640625 -6.75 9.171875 -7 C 8.710938 -7.257812 8.085938 -7.390625 7.296875 -7.390625 L 4.171875 -7.390625 L 4.171875 -0.921875 C 4.171875 -0.609375 4.078125 -0.351562 3.890625 -0.15625 C 3.710938 0.03125 3.472656 0.125 3.171875 0.125 C 2.859375 0.125 2.609375 0.03125 2.421875 -0.15625 C 2.242188 -0.351562 2.15625 -0.609375 2.15625 -0.921875 L 2.15625 -16.484375 C 2.15625 -16.785156 2.25 -17.023438 2.4375 -17.203125 C 2.632812 -17.390625 2.890625 -17.484375 3.203125 -17.484375 L 9.34375 -17.484375 C 11.25 -17.484375 12.703125 -17.0625 13.703125 -16.21875 C 14.703125 -15.375 15.203125 -14.132812 15.203125 -12.5 C 15.203125 -11.113281 14.800781 -10 14 -9.15625 C 13.195312 -8.3125 12.050781 -7.796875 10.5625 -7.609375 C 10.976562 -7.484375 11.347656 -7.269531 11.671875 -6.96875 C 12.003906 -6.664062 12.335938 -6.253906 12.671875 -5.734375 Z M 9.171875 -9.078125 C 10.523438 -9.078125 11.535156 -9.359375 12.203125 -9.921875 C 12.878906 -10.484375 13.21875 -11.332031 13.21875 -12.46875 C 13.21875 -13.59375 12.882812 -14.425781 12.21875 -14.96875 C 11.5625 -15.519531 10.546875 -15.796875 9.171875 -15.796875 L 4.171875 -15.796875 L 4.171875 -9.078125 Z M 9.171875 -9.078125 "/></g></g></g><g fill="#2c203b" fill-opacity="1"><g transform="translate(255.576281, 142.653558)"><g><path d="M 14.734375 -1.53125 C 14.960938 -1.320312 15.078125 -1.082031 15.078125 -0.8125 C 15.078125 -0.582031 14.976562 -0.375 14.78125 -0.1875 C 14.59375 0 14.378906 0.09375 14.140625 0.09375 C 13.921875 0.09375 13.695312 -0.00390625 13.46875 -0.203125 L 4.1875 -8.3125 L 4.1875 -0.921875 C 4.1875 -0.609375 4.09375 -0.351562 3.90625 -0.15625 C 3.726562 0.03125 3.484375 0.125 3.171875 0.125 C 2.859375 0.125 2.609375 0.03125 2.421875 -0.15625 C 2.242188 -0.351562 2.15625 -0.609375 2.15625 -0.921875 L 2.15625 -16.5625 C 2.15625 -16.875 2.242188 -17.125 2.421875 -17.3125 C 2.609375 -17.507812 2.859375 -17.609375 3.171875 -17.609375 C 3.484375 -17.609375 3.726562 -17.507812 3.90625 -17.3125 C 4.09375 -17.125 4.1875 -16.875 4.1875 -16.5625 L 4.1875 -9.453125 L 13.046875 -17.3125 C 13.222656 -17.488281 13.4375 -17.578125 13.6875 -17.578125 C 13.9375 -17.578125 14.148438 -17.484375 14.328125 -17.296875 C 14.515625 -17.109375 14.609375 -16.894531 14.609375 -16.65625 C 14.609375 -16.414062 14.5 -16.1875 14.28125 -15.96875 L 6.28125 -8.921875 Z M 14.734375 -1.53125 "/></g></g></g><g fill="#2c203b" fill-opacity="1"><g transform="translate(279.608807, 142.653558)"><g><path d="M 7.734375 0.203125 C 6.492188 0.203125 5.304688 0.015625 4.171875 -0.359375 C 3.046875 -0.734375 2.144531 -1.234375 1.46875 -1.859375 C 1.21875 -2.085938 1.09375 -2.378906 1.09375 -2.734375 C 1.09375 -2.960938 1.15625 -3.160156 1.28125 -3.328125 C 1.414062 -3.503906 1.578125 -3.59375 1.765625 -3.59375 C 1.972656 -3.59375 2.203125 -3.503906 2.453125 -3.328125 C 3.992188 -2.128906 5.75 -1.53125 7.71875 -1.53125 C 9.132812 -1.53125 10.222656 -1.800781 10.984375 -2.34375 C 11.742188 -2.894531 12.125 -3.675781 12.125 -4.6875 C 12.125 -5.257812 11.941406 -5.722656 11.578125 -6.078125 C 11.210938 -6.441406 10.734375 -6.726562 10.140625 -6.9375 C 9.546875 -7.15625 8.742188 -7.378906 7.734375 -7.609375 C 6.378906 -7.921875 5.265625 -8.25 4.390625 -8.59375 C 3.523438 -8.945312 2.820312 -9.445312 2.28125 -10.09375 C 1.75 -10.738281 1.484375 -11.582031 1.484375 -12.625 C 1.484375 -13.613281 1.75 -14.492188 2.28125 -15.265625 C 2.820312 -16.035156 3.578125 -16.628906 4.546875 -17.046875 C 5.515625 -17.472656 6.617188 -17.6875 7.859375 -17.6875 C 9.015625 -17.6875 10.09375 -17.503906 11.09375 -17.140625 C 12.09375 -16.785156 12.929688 -16.28125 13.609375 -15.625 C 13.878906 -15.351562 14.015625 -15.0625 14.015625 -14.75 C 14.015625 -14.519531 13.945312 -14.316406 13.8125 -14.140625 C 13.675781 -13.972656 13.519531 -13.890625 13.34375 -13.890625 C 13.15625 -13.890625 12.914062 -13.976562 12.625 -14.15625 C 11.8125 -14.820312 11.054688 -15.285156 10.359375 -15.546875 C 9.671875 -15.804688 8.835938 -15.9375 7.859375 -15.9375 C 6.484375 -15.9375 5.414062 -15.648438 4.65625 -15.078125 C 3.894531 -14.515625 3.515625 -13.722656 3.515625 -12.703125 C 3.515625 -11.816406 3.847656 -11.15625 4.515625 -10.71875 C 5.191406 -10.28125 6.222656 -9.898438 7.609375 -9.578125 C 9.117188 -9.210938 10.300781 -8.875 11.15625 -8.5625 C 12.019531 -8.257812 12.734375 -7.800781 13.296875 -7.1875 C 13.867188 -6.582031 14.15625 -5.765625 14.15625 -4.734375 C 14.15625 -3.753906 13.882812 -2.894531 13.34375 -2.15625 C 12.8125 -1.414062 12.054688 -0.835938 11.078125 -0.421875 C 10.109375 -0.00390625 8.992188 0.203125 7.734375 0.203125 Z M 7.734375 0.203125 "/></g></g></g><g fill="#2c203b" fill-opacity="1"><g transform="translate(303.368555, 142.653558)"><g><path d="M 1.390625 0.890625 C 1.328125 1.109375 1.21875 1.273438 1.0625 1.390625 C 0.914062 1.503906 0.753906 1.5625 0.578125 1.5625 C 0.335938 1.5625 0.128906 1.476562 -0.046875 1.3125 C -0.234375 1.144531 -0.328125 0.9375 -0.328125 0.6875 C -0.328125 0.59375 -0.300781 0.476562 -0.25 0.34375 L 5.609375 -17.953125 C 5.671875 -18.171875 5.773438 -18.335938 5.921875 -18.453125 C 6.078125 -18.566406 6.242188 -18.625 6.421875 -18.625 C 6.648438 -18.625 6.851562 -18.539062 7.03125 -18.375 C 7.21875 -18.207031 7.3125 -17.992188 7.3125 -17.734375 C 7.3125 -17.679688 7.296875 -17.570312 7.265625 -17.40625 Z M 1.390625 0.890625 "/></g></g></g><g fill="#2c203b" fill-opacity="1"><g transform="translate(318.845694, 142.653558)"><g><path d="M 12.75 -8.1875 C 12.976562 -8.082031 13.15625 -7.929688 13.28125 -7.734375 C 13.414062 -7.535156 13.484375 -7.3125 13.484375 -7.0625 C 13.484375 -6.800781 13.414062 -6.566406 13.28125 -6.359375 C 13.15625 -6.148438 12.976562 -6 12.75 -5.90625 L 2.734375 -1.359375 C 2.578125 -1.296875 2.410156 -1.265625 2.234375 -1.265625 C 2.003906 -1.265625 1.804688 -1.332031 1.640625 -1.46875 C 1.472656 -1.613281 1.390625 -1.796875 1.390625 -2.015625 C 1.390625 -2.296875 1.535156 -2.515625 1.828125 -2.671875 L 11.578125 -7.046875 L 1.828125 -11.4375 C 1.535156 -11.5625 1.390625 -11.773438 1.390625 -12.078125 C 1.390625 -12.304688 1.46875 -12.488281 1.625 -12.625 C 1.78125 -12.769531 1.984375 -12.84375 2.234375 -12.84375 C 2.367188 -12.84375 2.535156 -12.800781 2.734375 -12.71875 Z M 12.75 -8.1875 "/></g></g></g><g clip-path="url(#f28e3dcd63)"><path fill="#844dee" d="M 215.863281 53.25 L 266.230469 3.261719 C 266.847656 2.644531 266.847656 1.644531 266.230469 1.011719 C 265.609375 0.390625 264.613281 0.375 263.992188 1.011719 L 212.960938 51.664062 L 191.441406 51.664062 L 191.441406 2.136719 C 191.441406 1.453125 191.015625 0.851562 190.378906 0.628906 C 189.746094 0.40625 189.03125 0.613281 188.617188 1.152344 L 108.371094 103.394531 C 107.832031 104.078125 107.945312 105.078125 108.640625 105.617188 C 108.929688 105.839844 109.277344 105.949219 109.625 105.949219 C 110.085938 105.949219 110.5625 105.742188 110.878906 105.347656 L 188.285156 6.722656 L 188.285156 102.777344 L 153.898438 102.777344 C 153.027344 102.777344 152.3125 103.492188 152.3125 104.363281 C 152.3125 105.234375 153.027344 105.949219 153.898438 105.949219 L 189.855469 105.949219 C 190.730469 105.949219 191.441406 105.234375 191.441406 104.363281 L 191.441406 54.835938 L 212.960938 54.835938 L 263.992188 105.488281 C 264.308594 105.789062 264.707031 105.949219 265.121094 105.949219 C 265.53125 105.949219 265.929688 105.789062 266.246094 105.488281 C 266.863281 104.871094 266.863281 103.855469 266.246094 103.238281 Z M 215.863281 53.25 " fill-opacity="1" fill-rule="nonzero"/></g></svg>